<svg xmlns="http://www.w3.org/2000/svg" viewBox="0 0 100 100" fill-rule="evenodd"><rect x="0" y="0" width="100" height="100" fill="#e2e2e2" rx="50" ry="50"></rect><g class="t-group-origins" style="transform-origin:center;transform:scale(0.58);"><path d="M91.785 56.401H73.38c-.393-12.726-10.861-22.959-23.68-22.959S26.413 43.675 26.02 56.401H8.134a1.5 1.5 0 1 0 0 3h83.651a1.5 1.5 0 0 0 0-3zm-42.086-19.96c11.164 0 20.268 8.89 20.662 19.959H29.038c.394-11.069 9.498-19.959 20.661-19.959zm27.047 35.674H21.357a1.5 1.5 0 1 0 0 3h55.389a1.5 1.5 0 0 0 0-3zM60.857 87.983H38.6a1.5 1.5 0 1 0 0 3h22.257a1.5 1.5 0 0 0 0-3zM50.444 30.108a1.5 1.5 0 0 0 1.5-1.5V10.635a1.5 1.5 0 1 0-3 0v17.973a1.5 1.5 0 0 0 1.5 1.5zm11.515 1.652a1.5 1.5 0 0 0 1.919-.905l5.664-15.774a1.5 1.5 0 0 0-2.824-1.013l-5.664 15.774a1.5 1.5 0 0 0 .905 1.918zm10.296 6.928c.419 0 .835-.174 1.132-.514l12.149-13.933a1.5 1.5 0 0 0-2.262-1.971L71.125 36.202a1.5 1.5 0 0 0 1.13 2.486z" stroke-width="0" stroke="#000000" fill="#000000" stroke-width-old="0"></path><path d="M96.04 39.208a1.5 1.5 0 0 0-2.015-.664l-15.85 7.994a1.5 1.5 0 0 0 1.352 2.679l15.85-7.994a1.501 1.501 0 0 0 .663-2.015zm-58.827-8.353a1.501 1.501 0 0 0 2.824-1.013L34.079 13.25a1.5 1.5 0 1 0-2.823 1.013l5.957 16.592zm-9.553 7.264a1.495 1.495 0 0 0 2.107.243 1.5 1.5 0 0 0 .243-2.107L18.563 21.823a1.5 1.5 0 1 0-2.35 1.864L27.66 38.119zm-5.423 11.259a1.5 1.5 0 0 0 .668-2.844L7.648 38.955a1.5 1.5 0 1 0-1.335 2.687L21.57 49.22c.215.107.442.158.667.158z" stroke-width="0" stroke="#000000" fill="#000000" stroke-width-old="0"></path></g></svg>
